HIERARCHY
ROOT pelvis
{
	OFFSET 0.003123 -0.351407 0.012037
	CHANNELS 6 Xposition Yposition Zposition Zrotation Yrotation Xrotation 
	JOINT left_hip
	{
		OFFSET 0.058189 -0.092763 -0.026001
		CHANNELS 3 Zrotation Yrotation Xrotation
		JOINT left_knee
		{
			OFFSET 0.054695 -0.378753 -0.009396
			CHANNELS 3 Zrotation Yrotation Xrotation
			JOINT left_ankle
			{
				OFFSET -0.043453 -0.403059 -0.031876
				CHANNELS 3 Zrotation Yrotation Xrotation
				JOINT left_foot
				{
					OFFSET 0.047257 -0.057997 0.118216
					CHANNELS 3 Zrotation Yrotation Xrotation
					End Site
					{
						OFFSET 0.000000 0.000000 0.000000
					}
				}
			}
		}
	}
	JOINT right_hip
	{
		OFFSET -0.063267 -0.103908 -0.021250
		CHANNELS 3 Zrotation Yrotation Xrotation
		JOINT right_knee
		{
			OFFSET -0.044210 -0.362380 -0.016824
			CHANNELS 3 Zrotation Yrotation Xrotation
			JOINT right_ankle
			{
				OFFSET 0.015417 -0.410728 -0.020192
				CHANNELS 3 Zrotation Yrotation Xrotation
				JOINT right_foot
				{
					OFFSET -0.038812 -0.058328 0.119049
					CHANNELS 3 Zrotation Yrotation Xrotation
					End Site
					{
						OFFSET 0.000000 0.000000 0.000000
					}
				}
			}
		}
	}
	JOINT spine_1
	{
		OFFSET -0.002763 0.109891 -0.027618
		CHANNELS 3 Zrotation Yrotation Xrotation
		JOINT spine_2
		{
			OFFSET 0.009448 0.131853 -0.005940
			CHANNELS 3 Zrotation Yrotation Xrotation
			JOINT spine_3
			{
				OFFSET -0.011330 0.052235 0.028447
				CHANNELS 3 Zrotation Yrotation Xrotation
				JOINT neck
				{
					OFFSET -0.012164 0.165167 -0.031615
					CHANNELS 3 Zrotation Yrotation Xrotation
					JOINT head
					{
						OFFSET 0.024783 0.160452 0.020737
						CHANNELS 3 Zrotation Yrotation Xrotation
						End Site
						{
							OFFSET 0.000000 0.000000 0.000000
						}
					}
				}
				JOINT left_collar
				{
					OFFSET 0.046364 0.084944 -0.007220
					CHANNELS 3 Zrotation Yrotation Xrotation
					JOINT left_shoulder
					{
						OFFSET 0.119239 0.057728 -0.015461
						CHANNELS 3 Zrotation Yrotation Xrotation
						JOINT left_elbow
						{
							OFFSET 0.254123 -0.072151 -0.042459
							CHANNELS 3 Zrotation Yrotation Xrotation
							JOINT left_wrist
							{
								OFFSET 0.251987 0.023221 -0.002472
								CHANNELS 3 Zrotation Yrotation Xrotation
								JOINT left_index_1
								{
									OFFSET 0.101902 -0.008688 0.019351
									CHANNELS 3 Zrotation Yrotation Xrotation
									JOINT left_index_2
									{
										OFFSET 0.030149 -0.011154 0.001151
										CHANNELS 3 Zrotation Yrotation Xrotation
										JOINT left_index_3
										{
											OFFSET 0.006504 -0.021577 -0.002433
											CHANNELS 3 Zrotation Yrotation Xrotation
											End Site
											{
												OFFSET 0.000000 0.000000 0.000000
											}
										}
									}
								}
								JOINT left_middle_1
								{
									OFFSET 0.109398 -0.006328 -0.003981
									CHANNELS 3 Zrotation Yrotation Xrotation
									JOINT left_middle_2
									{
										OFFSET 0.026472 -0.015218 -0.004641
										CHANNELS 3 Zrotation Yrotation Xrotation
										JOINT left_middle_3
										{
											OFFSET 0.005022 -0.023347 -0.001911
											CHANNELS 3 Zrotation Yrotation Xrotation
											End Site
											{
												OFFSET 0.000000 0.000000 0.000000
											}
										}
									}
								}
								JOINT left_pinky_1
								{
									OFFSET 0.084047 -0.014539 -0.043750
									CHANNELS 3 Zrotation Yrotation Xrotation
									JOINT left_pinky_2
									{
										OFFSET 0.012124 -0.014448 -0.005375
										CHANNELS 3 Zrotation Yrotation Xrotation
										JOINT left_pinky_3
										{
											OFFSET 0.003798 -0.018853 0.000167
											CHANNELS 3 Zrotation Yrotation Xrotation
											End Site
											{
												OFFSET 0.000000 0.000000 0.000000
											}
										}
									}
								}
								JOINT left_ring_1
								{
									OFFSET 0.097444 -0.009268 -0.027345
									CHANNELS 3 Zrotation Yrotation Xrotation
									JOINT left_ring_2
									{
										OFFSET 0.023561 -0.016057 -0.001895
										CHANNELS 3 Zrotation Yrotation Xrotation
										JOINT left_ring_3
										{
											OFFSET 0.004257 -0.023548 0.000814
											CHANNELS 3 Zrotation Yrotation Xrotation
											End Site
											{
												OFFSET 0.000000 0.000000 0.000000
											}
										}
									}
								}
								JOINT left_thumb_1
								{
									OFFSET 0.040636 -0.017977 0.025611
									CHANNELS 3 Zrotation Yrotation Xrotation
									JOINT left_thumb_2
									{
										OFFSET 0.021637 -0.017639 0.011623
										CHANNELS 3 Zrotation Yrotation Xrotation
										JOINT left_thumb_3
										{
											OFFSET 0.024002 -0.008356 0.006548
											CHANNELS 3 Zrotation Yrotation Xrotation
											End Site
											{
												OFFSET 0.000000 0.000000 0.000000
											}
										}
									}
								}
							}
						}
					}
				}
				JOINT right_collar
				{
					OFFSET -0.047695 0.084339 -0.013400
					CHANNELS 3 Zrotation Yrotation Xrotation
					JOINT right_shoulder
					{
						OFFSET -0.102578 0.053524 -0.012669
						CHANNELS 3 Zrotation Yrotation Xrotation
						JOINT right_elbow
						{
							OFFSET -0.271150 -0.036492 -0.026467
							CHANNELS 3 Zrotation Yrotation Xrotation
							JOINT right_wrist
							{
								OFFSET -0.249267 -0.004533 -0.015325
								CHANNELS 3 Zrotation Yrotation Xrotation
								JOINT right_index_1
								{
									OFFSET -0.099881 -0.011783 0.019600
									CHANNELS 3 Zrotation Yrotation Xrotation
									JOINT right_index_2
									{
										OFFSET -0.030148 -0.011154 0.001151
										CHANNELS 3 Zrotation Yrotation Xrotation
										JOINT right_index_3
										{
											OFFSET -0.006505 -0.021577 -0.002432
											CHANNELS 3 Zrotation Yrotation Xrotation
											End Site
											{
												OFFSET 0.000000 0.000000 0.000000
											}
										}
									}
								}
								JOINT right_middle_1
								{
									OFFSET -0.107376 -0.009422 -0.003734
									CHANNELS 3 Zrotation Yrotation Xrotation
									JOINT right_middle_2
									{
										OFFSET -0.026472 -0.015218 -0.004641
										CHANNELS 3 Zrotation Yrotation Xrotation
										JOINT right_middle_3
										{
											OFFSET -0.005022 -0.023347 -0.001911
											CHANNELS 3 Zrotation Yrotation Xrotation
											End Site
											{
												OFFSET 0.000000 0.000000 0.000000
											}
										}
									}
								}
								JOINT right_pinky_1
								{
									OFFSET -0.082027 -0.017634 -0.043503
									CHANNELS 3 Zrotation Yrotation Xrotation
									JOINT right_pinky_2
									{
										OFFSET -0.012123 -0.014448 -0.005374
										CHANNELS 3 Zrotation Yrotation Xrotation
										JOINT right_pinky_3
										{
											OFFSET -0.003798 -0.018852 0.000167
											CHANNELS 3 Zrotation Yrotation Xrotation
											End Site
											{
												OFFSET 0.000000 0.000000 0.000000
											}
										}
									}
								}
								JOINT right_ring_1
								{
									OFFSET -0.095423 -0.012362 -0.027099
									CHANNELS 3 Zrotation Yrotation Xrotation
									JOINT right_ring_2
									{
										OFFSET -0.023561 -0.016057 -0.001895
										CHANNELS 3 Zrotation Yrotation Xrotation
										JOINT right_ring_3
										{
											OFFSET -0.004257 -0.023548 0.000816
											CHANNELS 3 Zrotation Yrotation Xrotation
											End Site
											{
												OFFSET 0.000000 0.000000 0.000000
											}
										}
									}
								}
								JOINT right_thumb_1
								{
									OFFSET -0.038613 -0.021074 0.025861
									CHANNELS 3 Zrotation Yrotation Xrotation
									JOINT right_thumb_2
									{
										OFFSET -0.021636 -0.017639 0.011623
										CHANNELS 3 Zrotation Yrotation Xrotation
										JOINT right_thumb_3
										{
											OFFSET -0.024004 -0.008353 0.006547
											CHANNELS 3 Zrotation Yrotation Xrotation
											End Site
											{
												OFFSET 0.000000 0.000000 0.000000
											}
										}
									}
								}
							}
						}
					}
				}
			}
		}
	}
}
MOTION
Frames: 4
Frame Time: 0.050000
0.473969 0.635521 1.239960 -68.951959 -64.071467 58.988039 -66.224591 11.418001 -37.430989 72.505338 22.901954 -7.228963 7.224724 56.871411 133.290006 0.000000 0.000000 0.000000 -10.391764 38.220435 47.235396 1.502491 25.517310 -70.070712 -65.794421 -24.250178 108.740543 0.000000 0.000000 0.000000 26.796602 -1.627030 21.010002 17.208383 13.285131 -51.463339 -52.685650 -51.140670 61.930582 7.089651 1.109466 -0.983767 0.000000 0.000000 0.000000 23.517130 -10.587553 72.701657 101.178175 -54.417458 -18.933624 44.596019 62.560971 31.228494 15.925287 5.938659 -50.654685 24.988572 9.466058 10.082791 62.562837 -25.927425 -62.610314 0.000000 0.000000 0.000000 -0.410508 -15.191175 -5.745029 46.816542 -13.190713 -32.678199 0.000000 0.000000 0.000000 10.307973 -38.850192 -37.011707 32.336577 -0.922854 11.073429 0.000000 0.000000 0.000000 -5.524736 -28.727609 -10.181374 41.859112 -0.136406 -16.133228 0.000000 0.000000 0.000000 72.405680 8.465704 8.378885 -35.953674 -15.941369 10.661896 0.000000 0.000000 0.000000 -17.026976 -6.598280 -58.565193 38.746580 -38.114661 -32.527386 94.325706 24.026427 -5.505415 5.565576 -1.496144 58.174100 24.965032 -13.370940 -0.999118 -23.121050 1.076857 12.527833 0.000000 0.000000 0.000000 10.810569 -4.033572 -1.063944 8.401825 -12.316806 21.250023 0.000000 0.000000 0.000000 -47.909554 10.027202 -7.133187 -116.381421 43.910084 137.917646 0.000000 0.000000 0.000000 -3.069996 -5.552298 0.795180 59.964076 -33.025285 15.831750 0.000000 0.000000 0.000000 -2.323089 -27.602602 24.324449 2.314923 9.031025 -2.045590 0.000000 0.000000 0.000000 
0.473969 0.635521 1.239960 -70.508140 -64.296867 60.612133 -65.947234 11.193143 -38.311183 72.787076 22.361548 -6.541658 6.352894 57.105909 132.879365 0.000000 0.000000 0.000000 -11.233926 38.569319 46.146476 1.767792 26.144027 -69.896357 -65.873908 -24.203976 108.796338 0.000000 0.000000 0.000000 26.783203 -1.594138 20.333370 17.602293 13.251810 -50.758001 -53.660567 -49.768691 61.356290 9.648665 2.239549 1.886415 0.000000 0.000000 0.000000 25.072832 -11.252193 73.168754 101.182582 -55.914914 -20.580202 47.065338 62.437273 33.316406 15.631825 5.676265 -48.738724 24.911327 9.058751 9.677441 57.768219 -21.438292 -53.068174 0.000000 0.000000 0.000000 1.517491 -15.041354 -6.026903 46.593317 -12.437786 -31.723466 0.000000 0.000000 0.000000 12.273140 -38.126922 -37.871042 32.087992 -0.910359 11.016917 0.000000 0.000000 0.000000 -3.675756 -28.469423 -11.098315 42.548593 0.043651 -15.301318 0.000000 0.000000 0.000000 71.921151 9.429674 8.552385 -34.657860 -15.849427 9.939312 0.000000 0.000000 0.000000 -15.000704 -4.667060 -58.400713 36.973196 -37.916116 -30.050427 94.470202 25.908783 -3.420714 5.041639 -1.125373 57.233567 25.560309 -11.585129 -1.406625 -22.495851 0.921268 12.415556 0.000000 0.000000 0.000000 11.818616 -3.982910 -1.413192 8.938960 -10.883072 18.129355 0.000000 0.000000 0.000000 -45.230891 10.614462 -6.348327 -116.019502 44.116582 142.601672 0.000000 0.000000 0.000000 -1.157094 -5.380597 0.760663 58.788696 -30.423343 14.701816 0.000000 0.000000 0.000000 -2.731327 -27.708648 25.042588 0.706302 10.537671 -3.269908 0.000000 0.000000 0.000000 
0.473969 0.635521 1.239960 -70.508140 -64.296867 60.612133 -65.987029 11.189857 -38.359752 72.841483 22.349516 -6.514190 6.166940 57.053438 132.702966 0.000000 0.000000 0.000000 -11.409346 38.717532 46.088473 1.296740 25.995033 -70.517451 -64.417216 -23.446449 110.871767 0.000000 0.000000 0.000000 26.783203 -1.594138 20.333370 16.733969 14.004584 -52.474242 -55.764546 -48.710480 63.682620 9.878200 2.120391 1.008018 0.000000 0.000000 0.000000 25.103325 -10.165521 74.810442 102.343701 -54.544247 -17.409251 43.164024 64.549316 31.350857 15.986587 5.253416 -48.829445 26.184763 10.532905 11.108956 63.254671 -21.595218 -57.017929 0.000000 0.000000 0.000000 1.603553 -14.603660 -5.894398 48.907524 -13.998974 -34.825506 0.000000 0.000000 0.000000 13.360428 -38.541337 -38.541318 31.475410 -0.856397 9.665430 0.000000 0.000000 0.000000 -3.984426 -29.843508 -11.370561 43.915016 -0.007776 -15.645465 0.000000 0.000000 0.000000 74.565242 9.274694 10.267516 -35.322355 -16.479636 10.157062 0.000000 0.000000 0.000000 -16.801698 -5.674845 -62.660683 36.719429 -42.126020 -31.617711 93.756177 20.546157 -7.916038 5.291851 -1.383056 59.476402 25.987525 -12.038858 -1.744121 -23.858609 0.307841 15.128616 0.000000 0.000000 0.000000 10.895924 -5.029937 -0.614135 8.807165 -12.336238 19.592292 0.000000 0.000000 0.000000 -51.954285 9.802762 -9.163934 -111.965684 39.612050 138.593073 0.000000 0.000000 0.000000 -6.585480 -4.667919 0.582829 63.204370 -34.875915 13.988385 0.000000 0.000000 0.000000 -2.382516 -28.551076 25.005259 0.912901 9.167681 -2.750220 0.000000 0.000000 0.000000 
0.475853 0.635521 1.239960 -67.616996 -63.533523 57.510380 -65.837980 11.115126 -37.156315 72.789636 22.184433 -6.523332 4.693030 56.760308 131.405936 0.000000 0.000000 0.000000 -10.078902 37.724465 47.675409 1.293706 25.249992 -70.589664 -64.200169 -23.629544 110.605263 0.000000 0.000000 0.000000 26.988469 -1.574875 20.544640 14.969685 10.168706 -50.895195 -52.024755 -53.003530 63.259885 7.526617 1.473077 -0.524000 0.000000 0.000000 0.000000 24.001713 -7.820988 75.815379 103.089706 -53.697444 -16.489014 42.263572 66.011006 31.562607 15.983018 5.356579 -49.587224 26.655070 11.255667 11.866708 66.620247 -23.134826 -62.047159 0.000000 0.000000 0.000000 0.782392 -14.566345 -5.773064 50.061769 -14.158255 -34.631592 0.000000 0.000000 0.000000 12.408402 -40.109657 -39.008893 33.119721 -1.128516 11.365449 0.000000 0.000000 0.000000 -5.484642 -31.272350 -10.987658 46.167323 0.142530 -13.875263 0.000000 0.000000 0.000000 74.867686 9.315631 11.286521 -34.962359 -17.112316 9.880499 0.000000 0.000000 0.000000 -17.026152 -3.728075 -61.995487 37.361081 -39.799471 -31.718947 93.362589 22.698481 -7.078116 5.305113 -1.277214 58.999030 23.116619 -11.402076 -0.754786 -21.920789 0.467294 13.138733 0.000000 0.000000 0.000000 10.982126 -4.943245 -0.660870 6.763076 -10.274311 18.303555 0.000000 0.000000 0.000000 -51.326657 10.024991 -8.872987 -111.290841 38.628942 140.621325 0.000000 0.000000 0.000000 -6.240976 -4.570568 0.624476 63.057450 -34.083614 13.546447 0.000000 0.000000 0.000000 -2.404547 -28.235380 24.874721 -2.233328 9.773971 -4.578700 0.000000 0.000000 0.000000 
